{
  "asset": {
    "generator": "Khronos glTF Blender I/O v4.4.55",
    "version": "2.0"
  },
  "scene": 0,
  "scenes": [
    {
      "name": "Scene",
      "nodes": [
        0
      ]
    }
  ],
  "nodes": [
    {
      "mesh": 0,
      "name": "Camera"
    }
  ],
  "materials": [
    {
      "doubleSided": true,
      "name": "Material",
      "pbrMetallicRoughness": {
        "baseColorFactor": [
          0.800000011920929,
          0.800000011920929,
          0.800000011920929,
          1
        ],
        "metallicFactor": 0,
        "roughnessFactor": 0.5
      }
    },
    {
      "doubleSided": true,
      "name": "Material.001",
      "pbrMetallicRoughness": {
        "baseColorFactor": [
          0.800000011920929,
          0.800000011920929,
          0.800000011920929,
          1
        ],
        "metallicFactor": 0,
        "roughnessFactor": 0.5
      }
    }
  ],
  "meshes": [
    {
      "name": "Cube.002",
      "primitives": [
        {
          "attributes": {
            "POSITION": 0,
            "NORMAL": 1,
            "TEXCOORD_0": 2
          },
          "indices": 3
        },
        {
          "attributes": {
            "POSITION": 4,
            "NORMAL": 5,
            "TEXCOORD_0": 6
          },
          "indices": 7,
          "material": 0
        },
        {
          "attributes": {
            "POSITION": 8,
            "NORMAL": 9,
            "TEXCOORD_0": 10
          },
          "indices": 11,
          "material": 1
        }
      ]
    }
  ],
  "accessors": [
    {
      "bufferView": 0,
      "componentType": 5126,
      "count": 1137,
      "max": [
        0.35228395462036133,
        1.1143542528152466,
        1.2124561071395874
      ],
      "min": [
        -0.31966710090637207,
        -0.5000202059745789,
        -1.3361866474151611
      ],
      "type": "VEC3"
    },
    {
      "bufferView": 1,
      "componentType": 5126,
      "count": 1137,
      "type": "VEC3"
    },
    {
      "bufferView": 2,
      "componentType": 5126,
      "count": 1137,
      "type": "VEC2"
    },
    {
      "bufferView": 3,
      "componentType": 5123,
      "count": 1920,
      "type": "SCALAR"
    },
    {
      "bufferView": 4,
      "componentType": 5126,
      "count": 482,
      "max": [
        0.6230310201644897,
        0.315134197473526,
        1.9032753705978394
      ],
      "min": [
        -0.6175520420074463,
        -0.5641531348228455,
        1.0388201475143433
      ],
      "type": "VEC3"
    },
    {
      "bufferView": 5,
      "componentType": 5126,
      "count": 482,
      "type": "VEC3"
    },
    {
      "bufferView": 6,
      "componentType": 5126,
      "count": 482,
      "type": "VEC2"
    },
    {
      "bufferView": 7,
      "componentType": 5123,
      "count": 708,
      "type": "SCALAR"
    },
    {
      "bufferView": 8,
      "componentType": 5126,
      "count": 430,
      "max": [
        0.4452729821205139,
        0.5111390352249146,
        0.6047734022140503
      ],
      "min": [
        -0.43979406356811523,
        -0.640762984752655,
        -1.884666919708252
      ],
      "type": "VEC3"
    },
    {
      "bufferView": 9,
      "componentType": 5126,
      "count": 430,
      "type": "VEC3"
    },
    {
      "bufferView": 10,
      "componentType": 5126,
      "count": 430,
      "type": "VEC2"
    },
    {
      "bufferView": 11,
      "componentType": 5123,
      "count": 660,
      "type": "SCALAR"
    }
  ],
  "bufferViews": [
    {
      "buffer": 0,
      "byteLength": 13644,
      "byteOffset": 0,
      "target": 34962
    },
    {
      "buffer": 0,
      "byteLength": 13644,
      "byteOffset": 13644,
      "target": 34962
    },
    {
      "buffer": 0,
      "byteLength": 9096,
      "byteOffset": 27288,
      "target": 34962
    },
    {
      "buffer": 0,
      "byteLength": 3840,
      "byteOffset": 36384,
      "target": 34963
    },
    {
      "buffer": 0,
      "byteLength": 5784,
      "byteOffset": 40224,
      "target": 34962
    },
    {
      "buffer": 0,
      "byteLength": 5784,
      "byteOffset": 46008,
      "target": 34962
    },
    {
      "buffer": 0,
      "byteLength": 3856,
      "byteOffset": 51792,
      "target": 34962
    },
    {
      "buffer": 0,
      "byteLength": 1416,
      "byteOffset": 55648,
      "target": 34963
    },
    {
      "buffer": 0,
      "byteLength": 5160,
      "byteOffset": 57064,
      "target": 34962
    },
    {
      "buffer": 0,
      "byteLength": 5160,
      "byteOffset": 62224,
      "target": 34962
    },
    {
      "buffer": 0,
      "byteLength": 3440,
      "byteOffset": 67384,
      "target": 34962
    },
    {
      "buffer": 0,
      "byteLength": 1320,
      "byteOffset": 70824,
      "target": 34963
    }
  ],
  "buffers": [
    {
      "uri": "camera_data.bin",
      "byteLength": 72144
    }
  ]
}